<?xml version="1.0" standalone="no"?>
<!DOCTYPE svg PUBLIC "-//W3C//DTD SVG 20010904//EN"
 "http://www.w3.org/TR/2001/REC-SVG-20010904/DTD/svg10.dtd">
<svg version="1.0" xmlns="http://www.w3.org/2000/svg"
 width="89.000000pt" height="89.000000pt" viewBox="0 0 89.000000 89.000000"
 preserveAspectRatio="xMidYMid meet">
<metadata>
Created by potrace 1.14, written by Peter Selinger 2001-2017
</metadata>
<g transform="translate(0.000000,89.000000) scale(0.100000,-0.100000)"
fill="#000000" stroke="none">
<path d="M330 874 c-209 -57 -349 -280 -312 -497 17 -98 55 -172 126 -242 70
-70 134 -104 226 -120 297 -51 559 238 483 535 -61 242 -295 387 -523 324z
m237 -147 c23 -12 43 -24 43 -27 0 -3 -38 -43 -85 -90 l-85 -85 -85 85 c-47
47 -85 87 -85 90 0 12 61 41 102 50 59 12 143 2 195 -23z m-279 -206 l74 -74
-86 -86 c-96 -96 -94 -96 -122 -2 -19 65 -15 155 11 219 20 50 14 53 123 -57z
m423 55 c10 -24 22 -66 25 -93 7 -57 -11 -150 -35 -181 l-16 -22 -85 85 -85
85 85 85 c47 47 86 85 88 85 2 0 12 -20 23 -44z m-186 -292 c47 -47 83 -89 80
-94 -3 -5 -31 -18 -63 -30 -72 -27 -166 -24 -229 9 -24 12 -43 24 -43 28 0 6
161 172 168 173 1 0 41 -39 87 -86z"/>
</g>
</svg>
